<?xml version="1.0" encoding="UTF-8" standalone="no"?>
<!-- Created with Inkscape (http://www.inkscape.org/) -->

<svg
   version="1.1"
   id="svg49399"
   width="1600"
   height="1600"
   viewBox="0 0 1600 1600"
   sodipodi:docname="wall-stone-vector-pdv.svg"
   inkscape:version="1.2 (dc2aedaf03, 2022-05-15)"
   xmlns:inkscape="http://www.inkscape.org/namespaces/inkscape"
   xmlns:sodipodi="http://sodipodi.sourceforge.net/DTD/sodipodi-0.dtd"
   xmlns="http://www.w3.org/2000/svg"
   xmlns:svg="http://www.w3.org/2000/svg">
  <defs
     id="defs49403" />
  <sodipodi:namedview
     id="namedview49401"
     pagecolor="#ffffff"
     bordercolor="#000000"
     borderopacity="0.25"
     inkscape:showpageshadow="2"
     inkscape:pageopacity="0.0"
     inkscape:pagecheckerboard="0"
     inkscape:deskcolor="#d1d1d1"
     showgrid="false"
     inkscape:zoom="0.523125"
     inkscape:cx="800"
     inkscape:cy="800.95579"
     inkscape:window-width="1920"
     inkscape:window-height="1017"
     inkscape:window-x="-8"
     inkscape:window-y="-8"
     inkscape:window-maximized="1"
     inkscape:current-layer="g49407">
    <inkscape:page
       x="0"
       y="0"
       id="page49405"
       width="1600"
       height="1600" />
  </sodipodi:namedview>
  <g
     id="g49407"
     inkscape:groupmode="layer"
     inkscape:label="Page 1"
     transform="matrix(1.3333333,0,0,-1.3333333,0,1600)">
    <path
       d="M 2.529,1.525 H 1200 V 1198.997 H 2.529 Z"
       style="fill:#1f1f1c;fill-opacity:1;fill-rule:nonzero;stroke:none"
       id="path49409" />
    <g
       id="g49411"
       transform="translate(1087.8262,489.1357)">
      <path
         d="m 0,0 h -346.365 v 202.838 l 47.175,13.665 H 12.96 l 12.269,-9.718 V 16.819 Z m -378.852,0 h -353.673 v 216.503 h 361.209 l 10.381,-8.898 V 22.078 Z M -768.22,0 h -286.908 l -16.626,14.21 v 202.293 h 299.01 l 25.646,-13.831 V 15.084 Z M 98.635,216.503 V 0 h -49.56 l -9.273,30.914 v 185.589 z"
         style="fill:#ccccaf;fill-opacity:1;fill-rule:evenodd;stroke:none"
         id="path49413" />
    </g>
    <g
       id="g49415"
       transform="translate(741.4609,505.8936)">
      <path
         d="m 0,0 350.434,3.124 21.16,26.022 V 0.062 L 346.365,-16.758 0,-16.758 Z M -386.16,10.409 -46.138,4.165 -14.569,31.227 V 5.32 L -32.486,-16.758 H -386.16 Z m -339.229,28.106 18.293,-29.143 275.835,-7.288 30.529,20.817 V -1.674 l -21.123,-15.084 h -286.908 l -16.626,14.21 z M 445,5.205 v -21.963 h -49.56 l -9.273,30.914 v 14.99 L 417.051,5.205 Z"
         style="fill:#a1a17a;fill-opacity:1;fill-rule:evenodd;stroke:none"
         id="path49417" />
    </g>
    <g
       id="g49419"
       transform="translate(535.3701,720.208)">
      <path
         d="m 0,0 h -336.193 l -35.401,18.744 v 182.458 l 16.623,15.301 H -8.196 L 0,200.507 Z M 386.163,0 H 40.635 L 14.573,34.98 v 168.295 l 20.143,13.228 H 386.163 Z M 651.091,216.503 V 22.159 L 622.952,0 H 413.256 l -12.52,27.289 v 176.332 l 18.934,12.882 z M -386.163,0 h -102.915 l -30.22,26.056 v 190.447 h 118.105 l 15.03,-16.948 z"
         style="fill:#ccccaf;fill-opacity:1;fill-rule:evenodd;stroke:none"
         id="path49421" />
    </g>
    <g
       id="g49423"
       transform="translate(290.7617,1185.4565)">
      <path
         d="m 0,0 h 371.597 v -218.854 l -26.889,-15.319 H 21.312 L 0,-198.897 Z m -274.689,0 h 260.12 v -222.717 l -9.945,-11.456 H -274.689 Z M 772.33,0 h 123.369 v -212.312 l -37.66,-21.861 H 772.33 Z M 386.166,0 H 757.76 v -209.814 l -19.14,-24.359 H 386.166 Z"
         style="fill:#ccccaf;fill-opacity:1;fill-rule:evenodd;stroke:none"
         id="path49425" />
    </g>
    <g
       id="g49427"
       transform="translate(1063.0918,1130.4277)">
      <path
         d="M 0,0 14.227,44.237 123.369,36.431 V 55.029 H 0 Z m -772.33,19.777 10.585,18.738 347.134,3.12 13.878,-52.044 V 55.029 H -772.33 Z m -274.69,-59.328 12.564,72.34 225.872,6.762 21.685,-39.032 v 54.51 h -260.121 z m 920.035,-197.766 23.588,23.935 215.46,-3.121 11.306,-0.542 v 23.328 h -231.421 l -18.933,-12.882 z m -386.163,0 47.526,28.102 311.222,1.041 12.841,-44.756 v 59.213 h -351.446 l -20.143,-13.227 z m -386.167,8.322 77.716,18.737 242.521,-5.204 51.356,-21.855 v 27.604 l -8.196,15.996 h -346.774 l -16.623,-15.301 z m -147.705,13.533 v 21.745 h 118.105 l 15.03,-16.948 v -39.145 l -20.13,36.428 z m 725.389,-264.383 38.162,31.226 325.215,10.643 8.217,-37.705 v 41.174 l -12.269,9.718 h -312.15 l -47.175,-13.665 z m -386.16,29.142 55.853,8.329 285.203,-1.041 30.535,-64.536 v 74.264 l -10.382,8.898 h -361.209 z m -339.229,9.392 288.914,4.141 35.743,-35.39 v 33.94 l -25.646,13.831 h -299.011 z m 1170.389,16.522 v -18.554 l -58.833,0.969 v 17.585 z M -386.164,55.029 H -14.57 v -101.35 l -17.521,90.04 -339.327,2.08 -14.746,-41.634 z"
         style="fill:#ebebd9;fill-opacity:1;fill-rule:evenodd;stroke:none"
         id="path49429" />
    </g>
    <g
       id="g49431"
       transform="translate(825.1777,15.0645)">
      <path
         d="M 0,0 H -336.647 V 228.426 H 34.947 V 19.269 Z M -379.213,0 H -722.81 v 228.426 h 340.056 l 31.534,-16.484 V 12.635 Z m -372.431,0 h -57.461 v 228.426 h 71.722 V 22.501 Z M 361.283,228.426 V 9.161 L 325.846,0 H 81.376 L 49.517,34.299 V 216.78 l 23.056,11.646 z"
         style="fill:#ccccaf;fill-opacity:1;fill-rule:evenodd;stroke:none"
         id="path49433" />
    </g>
    <g
       id="g49435"
       transform="translate(488.5308,29.1729)">
      <path
         d="m 0,0 331.701,1.044 39.893,37.471 V 5.16 L 336.647,-14.108 H 0 Z M -386.163,14.576 -49.258,0 -14.573,9.372 V -1.474 l -27.993,-12.634 h -343.597 z m -86.295,-10.412 45.365,2.084 26.357,33.307 V 8.393 l -14.261,-22.501 h -57.461 z M 697.93,18.737 V -4.947 l -35.437,-9.161 h -244.47 l -31.86,34.298 v 45.386 l 42.34,-59.328 223.581,-7.346 z"
         style="fill:#a1a17a;fill-opacity:1;fill-rule:evenodd;stroke:none"
         id="path49437" />
    </g>
    <g
       id="g49439"
       transform="translate(488.5308,222.2529)">
      <path
         d="m 0,0 0.342,0.524 h 371.167 l 0.085,-0.107 v 20.82 L 0,21.237 Z M -386.163,2.355 -66.958,6.77 -14.573,-22.373 V 4.754 l -31.535,16.483 h -340.055 z m -86.295,-1.193 71.722,0.992 v 19.083 h -71.722 z M 697.93,21.237 V 4.171 l -280.883,-1.566 -29.24,-23.677 -1.644,2.176 V 9.592 l 23.057,11.645 z"
         style="fill:#ebebd9;fill-opacity:1;fill-rule:evenodd;stroke:none"
         id="path49441" />
    </g>
    <g
       id="g49443"
       transform="translate(967.8574,258.0635)">
      <path
         d="m 0,0 h -352.019 v 211.122 l 5.055,5.377 H 3.493 L 19.574,188.444 V 31.382 Z m -379.366,0 h -358.82 v 197.311 l 25.158,19.188 h 337.521 l 8.918,-5.137 V 16.663 Z m -396.542,0 h -143.997 l -31.88,14.874 v 201.625 h 199.03 V 10.392 Z M 218.604,216.499 V 28.261 L 204.749,0 H 63.141 L 34.144,20.499 v 186.978 l 18.303,9.022 z"
         style="fill:#ccccaf;fill-opacity:1;fill-rule:evenodd;stroke:none"
         id="path49445" />
    </g>
    <g
       id="g49447"
       transform="translate(615.8379,276.9023)">
      <path
         d="m 0,0 314.722,-6.245 56.872,18.788 -19.575,-31.382 H 0 Z m -386.167,0 350.116,-4.161 21.482,31.225 v -29.24 l -12.778,-16.663 h -358.82 z m -213.599,4.561 33.907,-9.766 117.62,4.164 47.503,16.653 V -8.447 l -23.152,-10.392 h -143.998 l -31.88,14.874 z M 570.623,23.308 V 9.422 L 556.769,-18.839 H 415.16 L 386.163,1.66 V 12.543 L 431.302,0 h 115.536 z"
         style="fill:#a1a17a;fill-opacity:1;fill-rule:evenodd;stroke:none"
         id="path49449" />
    </g>
    <g
       id="g49451"
       transform="translate(615.8379,442.4014)">
      <path
         d="m 0,0 21.197,11.449 h 321.627 l 28.77,-46.84 V 4.106 L 355.513,32.161 H 5.056 L 0,26.784 Z m -386.167,-14.573 33.687,23.941 325.794,6.245 12.117,-24.981 v 36.392 l -8.918,5.137 h -337.522 l -25.158,-19.187 z m -213.599,26.022 h 199.03 v 20.712 h -199.03 z M 570.623,32.161 V 11.449 H 425.054 L 386.163,-9.368 v 32.507 l 18.304,9.022 z"
         style="fill:#ebebd9;fill-opacity:1;fill-rule:evenodd;stroke:none"
         id="path49453" />
    </g>
    <g
       id="g49455"
       transform="translate(936.1064,762.9985)">
      <path
         d="m 0,0 28.793,-21.858 192.562,-3.124 29,40.595 V -20.631 L 222.216,-42.79 H 12.52 L 0,-15.501 Z m -386.163,34.347 27.753,-48.92 343.837,-11.449 V -42.79 h -345.528 l -26.062,34.98 z m -386.167,-22.898 47.531,-26.022 307.057,-4.161 17.006,16.65 V -42.79 h -336.193 l -35.401,18.744 z m 899.315,211.133 27.117,-18.958 67.137,5.205 29.116,21.857 v -20.539 l -37.661,-21.862 h -85.709 z m -772.33,10.188 29.719,-20.299 311.743,-7.803 1.04,1.558 29.095,29.668 v -32.29 l -26.889,-15.319 h -323.396 l -21.312,35.276 z m -274.689,-27.584 15.562,-6.245 211.299,-1.565 33.259,22.383 v -20.018 l -9.945,-11.456 H -920.034 Z M 112.415,232.77 v -20.126 l -19.14,-24.359 h -352.454 v 17.941 L 79.16,201.544 Z M -786.899,-42.79 h -102.915 l -30.22,26.055 V 4.212 l 21.41,-19.825 82.227,-7.288 3.124,1.043 26.374,21.455 z"
         style="fill:#a1a17a;fill-opacity:1;fill-rule:evenodd;stroke:none"
         id="path49457" />
    </g>
    <g
       id="g49459"
       transform="translate(374.2212,1081.2202)">
      <path
         d="M 0,0 107.476,1.375 71.306,9.643 15.844,7.23 Z"
         style="fill:#a1a17a;fill-opacity:1;fill-rule:evenodd;stroke:none"
         id="path49461" />
    </g>
    <g
       id="g49463"
       transform="translate(374.2212,1081.2202)">
      <path
         d="m 0,0 20.323,-8.613 87.153,9.988 z"
         style="fill:#ebebd9;fill-opacity:1;fill-rule:evenodd;stroke:none"
         id="path49465" />
    </g>
    <g
       id="g49467"
       transform="translate(614.8486,883.7866)">
      <path
         d="M 0,0 74.725,-7.57 50.614,3.646 11.856,5.861 Z"
         style="fill:#a1a17a;fill-opacity:1;fill-rule:evenodd;stroke:none"
         id="path49469" />
    </g>
    <g
       id="g49471"
       transform="translate(614.8486,883.7866)">
      <path
         d="m 0,0 13.075,-10.243 61.65,2.673 z"
         style="fill:#ebebd9;fill-opacity:1;fill-rule:evenodd;stroke:none"
         id="path49473" />
    </g>
    <g
       id="g49475"
       transform="translate(166.9546,573.1777)">
      <path
         d="M 0,0 140.613,-14.244 95.244,6.861 22.309,11.036 Z"
         style="fill:#a1a17a;fill-opacity:1;fill-rule:evenodd;stroke:none"
         id="path49477" />
    </g>
    <g
       id="g49479"
       transform="translate(166.9546,573.1777)">
      <path
         d="m 0,0 24.605,-19.268 116.008,5.024 z"
         style="fill:#ebebd9;fill-opacity:1;fill-rule:evenodd;stroke:none"
         id="path49481" />
    </g>
    <g
       id="g49483"
       transform="translate(782.3301,395.8496)">
      <path
         d="M 0,0 50.922,-1.891 32.592,10.294 6.546,9.02 Z"
         style="fill:#a1a17a;fill-opacity:1;fill-rule:evenodd;stroke:none"
         id="path49485" />
    </g>
    <g
       id="g49487"
       transform="translate(782.3301,395.8496)">
      <path
         d="M 0,0 10.839,-12.092 50.922,-1.891 Z"
         style="fill:#ebebd9;fill-opacity:1;fill-rule:evenodd;stroke:none"
         id="path49489" />
    </g>
    <g
       id="g49491"
       transform="translate(263.9741,135.6318)">
      <path
         d="M 0,0 91.781,-1.891 58.742,10.294 11.798,9.02 Z"
         style="fill:#a1a17a;fill-opacity:1;fill-rule:evenodd;stroke:none"
         id="path49493" />
    </g>
    <g
       id="g49495"
       transform="translate(263.9741,135.6318)">
      <path
         d="M 0,0 19.537,-12.093 91.781,-1.891 Z"
         style="fill:#ebebd9;fill-opacity:1;fill-rule:evenodd;stroke:none"
         id="path49497" />
    </g>
    <g
       id="g49499"
       transform="translate(524.189,52.3623)">
      <path
         d="M 0,0 168.806,-1.891 108.041,10.293 21.705,9.02 Z"
         style="fill:#a1a17a;fill-opacity:1;fill-rule:evenodd;stroke:none"
         id="path49501" />
    </g>
    <g
       id="g49503"
       transform="translate(524.189,52.3623)">
      <path
         d="M 0,0 35.939,-12.093 168.806,-1.891 Z"
         style="fill:#ebebd9;fill-opacity:1;fill-rule:evenodd;stroke:none"
         id="path49505" />
    </g>
    <g
       id="g49507"
       transform="translate(898.8691,599.9351)">
      <path
         d="M 0,0 74.335,10.724 48.232,15.779 10.084,8.555 Z"
         style="fill:#a1a17a;fill-opacity:1;fill-rule:evenodd;stroke:none"
         id="path49509" />
    </g>
    <g
       id="g49511"
       transform="translate(898.8691,599.9351)">
      <path
         d="M 0,0 15.163,-6.777 74.335,10.724 Z"
         style="fill:#ebebd9;fill-opacity:1;fill-rule:evenodd;stroke:none"
         id="path49513" />
    </g>
    <g
       id="g49515"
       transform="translate(355.3013,627.1528)">
      <path
         d="M 0,0 56.143,-5.204 0,-9.89 Z"
         style="fill:#a1a17a;fill-opacity:1;fill-rule:evenodd;stroke:none"
         id="path49517" />
    </g>
    <g
       id="g49519"
       transform="translate(411.4448,621.9487)">
      <path
         d="m 0,0 -56.143,-15.356 v 10.67 z"
         style="fill:#ebebd9;fill-opacity:1;fill-rule:evenodd;stroke:none"
         id="path49521" />
    </g>
    <g
       id="g49523"
       transform="translate(163.7764,822.0522)">
      <path
         d="M 0,0 81.39,-13.743 0,-9.887 Z"
         style="fill:#a1a17a;fill-opacity:1;fill-rule:evenodd;stroke:none"
         id="path49525" />
    </g>
    <g
       id="g49527"
       transform="translate(245.166,808.3096)">
      <path
         d="M 0,0 -81.39,-6.814 V 3.856 Z"
         style="fill:#ebebd9;fill-opacity:1;fill-rule:evenodd;stroke:none"
         id="path49529" />
    </g>
    <g
       id="g49531"
       transform="translate(601.2686,382.3516)">
      <path
         d="M 0,0 -110.458,-8.318 0,-15.807 Z"
         style="fill:#a1a17a;fill-opacity:1;fill-rule:evenodd;stroke:none"
         id="path49533" />
    </g>
    <g
       id="g49535"
       transform="translate(490.811,374.0332)">
      <path
         d="m 0,0 110.458,-24.538 v 17.05 z"
         style="fill:#ebebd9;fill-opacity:1;fill-rule:evenodd;stroke:none"
         id="path49537" />
    </g>
    <g
       id="g49539"
       transform="translate(1048.5215,1070.0728)">
      <path
         d="M 0,0 -115.539,-13.75 0,-9.894 Z"
         style="fill:#a1a17a;fill-opacity:1;fill-rule:evenodd;stroke:none"
         id="path49541" />
    </g>
    <g
       id="g49543"
       transform="translate(932.9824,1056.3232)">
      <path
         d="M 0,0 115.539,-6.811 V 3.856 Z"
         style="fill:#ebebd9;fill-opacity:1;fill-rule:evenodd;stroke:none"
         id="path49545" />
    </g>
  </g>
</svg>
